<svg width="74" height="73" viewBox="0 0 74 73" fill="none" xmlns="http://www.w3.org/2000/svg">
<path d="M72.1433 24.6163L62.7812 19.9361V2.09375C62.7812 1.145 62.0129 0.375 61.0625 0.375H47.3125C46.362 0.375 45.5937 1.145 45.5937 2.09375V11.3423L37.7683 7.43047C37.5259 7.31016 37.2629 7.25 37 7.25C36.737 7.25 36.4723 7.31016 36.2317 7.43047L1.8567 24.618C1.00763 25.0425 0.663882 26.0755 1.08841 26.9245L4.52591 33.7995C4.95216 34.6486 5.98341 34.9923 6.83248 34.5678L11.2187 32.373V70.8438C11.2187 71.7925 11.9887 72.5625 12.9375 72.5625H61.0625C62.0129 72.5625 62.7812 71.7925 62.7812 70.8438V32.373L67.1692 34.5661C68.0217 34.9941 69.0512 34.6452 69.4758 33.7978L72.9133 26.9228C73.3378 26.0737 72.9923 25.0425 72.1433 24.6163ZM59.3437 3.8125V7.25H49.0312V3.8125H59.3437ZM49.0312 10.6875H59.3437V18.2173L49.0312 13.0611V10.6875ZM59.3437 69.125H14.6562V30.6542L37 19.4823L59.3437 30.6542V69.125ZM67.1692 30.723L37.77 16.0225C37.287 15.7802 36.7164 15.7802 36.2317 16.0225L6.83248 30.723L4.93326 26.9228L37 10.8886L69.0684 26.9228L67.1692 30.723Z" fill="#2170B4"/>
<path d="M22.0348 35.2536C17.5729 39.7137 17.5729 46.9738 22.0348 51.4339L35.7848 65.1839C36.1199 65.5191 36.5599 65.6875 36.9999 65.6875C37.4399 65.6875 37.8799 65.5191 38.2151 65.1839L51.9651 51.4339C56.427 46.9738 56.427 39.7137 51.9651 35.2536C47.8899 31.1784 41.479 30.8261 36.9999 34.1966C32.5226 30.8295 26.1116 31.1784 22.0348 35.2536ZM49.5348 37.6839C52.6543 40.8052 52.6543 45.8823 49.5348 49.0036L36.9999 61.5384L24.4651 49.0036C21.3455 45.8823 21.3455 40.8052 24.4651 37.6839C26.0257 36.1233 28.0762 35.343 30.1249 35.343C32.1737 35.343 34.2241 36.1233 35.7848 37.6839C36.4568 38.3559 37.543 38.3559 38.2151 37.6839C41.3363 34.5644 46.4135 34.5644 49.5348 37.6839Z" fill="#2170B4"/>
</svg>
