<svg width="33" height="29" viewBox="0 0 33 29" fill="none" xmlns="http://www.w3.org/2000/svg">
<g clip-path="url(#clip0_2190_1070)">
<path d="M30.7952 5.32932C29.6447 5.82747 28.4244 6.15445 27.1749 6.2994C28.4764 5.53694 29.4758 4.32956 29.9463 2.89098C28.7091 3.60861 27.3554 4.11423 25.9438 4.38598C24.794 3.18869 23.156 2.44043 21.3429 2.44043C17.8619 2.44043 15.0396 5.19888 15.0396 8.60108C15.0396 9.08401 15.0954 9.55415 15.2028 10.0052C9.96432 9.74816 5.31988 7.29552 2.21099 3.56816C1.66854 4.47807 1.35771 5.53647 1.35771 6.66538C1.35771 8.80284 2.47057 10.6884 4.16177 11.7933C3.16082 11.7627 2.18188 11.4984 1.3067 11.0226C1.30634 11.0484 1.30634 11.0743 1.30634 11.1002C1.30634 14.0851 3.47903 16.5752 6.36242 17.1412C5.43423 17.3879 4.46063 17.424 3.51599 17.2467C4.31803 19.6943 6.64588 21.4754 9.40398 21.5253C7.24678 23.1776 4.52888 24.1626 1.57589 24.1626C1.06704 24.1626 0.565392 24.1334 0.0722656 24.0765C2.86169 25.8245 6.17484 26.8444 9.73438 26.8444C21.3283 26.8444 27.6681 17.4567 27.6681 9.31556C27.6681 9.04835 27.6621 8.78266 27.6499 8.5185C28.8839 7.64658 29.949 6.56663 30.7952 5.32932Z" fill="#55ACEE"/>
</g>
<defs>
<clipPath id="clip0_2190_1070">
<rect width="31.9518" height="28.6747" fill="white" transform="translate(0.0722656)"/>
</clipPath>
</defs>
</svg>
