<svg width="29" height="29" viewBox="0 0 29 29" fill="none" xmlns="http://www.w3.org/2000/svg">
<g clip-path="url(#clip0_2190_1072)">
<path d="M27.0926 28.6748C27.9665 28.6748 28.6752 27.9662 28.6752 27.0922V1.5826C28.6752 0.708467 27.9665 0 27.0926 0H1.58309C0.708843 0 0.000488281 0.708467 0.000488281 1.5826V27.0922C0.000488281 27.9662 0.708843 28.6748 1.58309 28.6748H27.0926" fill="#395185"/>
<path d="M19.7854 28.675V17.5706H23.5127L24.0708 13.2431H19.7854V10.48C19.7854 9.22704 20.1334 8.37318 21.9301 8.37318L24.2218 8.37217V4.50165C23.8253 4.44889 22.465 4.33105 20.8825 4.33105C17.5784 4.33105 15.3165 6.3478 15.3165 10.0515V13.2431H11.5796V17.5706H15.3165V28.675H19.7854Z" fill="white"/>
</g>
<defs>
<clipPath id="clip0_2190_1072">
<rect width="28.6747" height="28.6747" fill="white"/>
</clipPath>
</defs>
</svg>
