<svg width="23" height="23" viewBox="0 0 22 21" fill="none" xmlns="http://www.w3.org/2000/svg">
<g clip-path="url(#clip0_1476_2486)">
<path d="M11 0.199951C8.17768 0.199951 7.82278 0.212951 6.71388 0.262351C5.60498 0.314351 4.84968 0.488551 4.18798 0.745951C3.4939 1.00702 2.86521 1.41653 2.34588 1.94585C1.81687 2.46546 1.40741 3.09406 1.14598 3.78795C0.888576 4.44835 0.713076 5.20495 0.662376 6.30995C0.612976 7.42145 0.599976 7.77505 0.599976 10.6013C0.599976 13.4249 0.612976 13.7785 0.662376 14.8874C0.714376 15.995 0.888576 16.7502 1.14598 17.412C1.41248 18.0958 1.76738 18.6756 2.34588 19.254C2.92308 19.8326 3.50288 20.1888 4.18668 20.454C4.84968 20.7113 5.60368 20.8869 6.71128 20.9375C7.82148 20.9869 8.17508 21 11 21C13.8249 21 14.1772 20.9869 15.2874 20.9375C16.3937 20.8855 17.1516 20.7113 17.8133 20.454C18.5069 20.1928 19.1351 19.7833 19.6541 19.254C20.2326 18.6756 20.5875 18.0958 20.854 17.412C21.1101 16.7502 21.2856 15.995 21.3376 14.8874C21.387 13.7785 21.4 13.4249 21.4 10.6C21.4 7.77505 21.387 7.42145 21.3376 6.31125C21.2856 5.20495 21.1101 4.44835 20.854 3.78795C20.5926 3.09404 20.1831 2.46543 19.6541 1.94585C19.1349 1.41633 18.5062 1.00679 17.812 0.745951C17.149 0.488551 16.3924 0.313051 15.2861 0.262351C14.1759 0.212951 13.8236 0.199951 10.9974 0.199951H11.0013H11ZM10.0679 2.07455H11.0013C13.7781 2.07455 14.107 2.08365 15.2029 2.13435C16.2169 2.17985 16.7681 2.35015 17.1347 2.49185C17.6196 2.68035 17.9667 2.90655 18.3307 3.27055C18.6947 3.63455 18.9196 3.98035 19.1081 4.46655C19.2511 4.83185 19.4201 5.38305 19.4656 6.39705C19.5163 7.49295 19.5267 7.82185 19.5267 10.5974C19.5267 13.3729 19.5163 13.703 19.4656 14.799C19.4201 15.813 19.2498 16.3629 19.1081 16.7295C18.9413 17.181 18.6752 17.5893 18.3294 17.9242C17.9654 18.2882 17.6196 18.5131 17.1334 18.7016C16.7694 18.8446 16.2182 19.0136 15.2029 19.0604C14.107 19.1098 13.7781 19.1215 11.0013 19.1215C8.22448 19.1215 7.89428 19.1098 6.79838 19.0604C5.78438 19.0136 5.23448 18.8446 4.86788 18.7016C4.41612 18.535 4.00744 18.2694 3.67188 17.9242C3.32575 17.5888 3.05922 17.1801 2.89188 16.7281C2.75018 16.3629 2.57988 15.8117 2.53438 14.7977C2.48498 13.7018 2.47458 13.3729 2.47458 10.5948C2.47458 7.81795 2.48498 7.49035 2.53438 6.39445C2.58118 5.38045 2.75018 4.82925 2.89318 4.46265C3.08168 3.97775 3.30788 3.63065 3.67188 3.26665C4.03588 2.90265 4.38168 2.67775 4.86788 2.48925C5.23448 2.34625 5.78438 2.17725 6.79838 2.13045C7.75778 2.08625 8.12958 2.07325 10.0679 2.07195V2.07455ZM16.5523 3.80095C16.3884 3.80095 16.2261 3.83323 16.0747 3.89595C15.9233 3.95867 15.7857 4.05059 15.6698 4.16648C15.5539 4.28237 15.462 4.41995 15.3993 4.57136C15.3366 4.72278 15.3043 4.88506 15.3043 5.04895C15.3043 5.21284 15.3366 5.37513 15.3993 5.52654C15.462 5.67795 15.5539 5.81553 15.6698 5.93142C15.7857 6.04731 15.9233 6.13923 16.0747 6.20195C16.2261 6.26467 16.3884 6.29695 16.5523 6.29695C16.8833 6.29695 17.2007 6.16547 17.4347 5.93142C17.6688 5.69737 17.8003 5.37994 17.8003 5.04895C17.8003 4.71796 17.6688 4.40053 17.4347 4.16648C17.2007 3.93244 16.8833 3.80095 16.5523 3.80095ZM11.0013 5.25955C10.2929 5.2485 9.58934 5.37848 8.93165 5.64193C8.27396 5.90539 7.67524 6.29704 7.17037 6.7941C6.6655 7.29116 6.26455 7.88369 5.99087 8.53719C5.71719 9.19069 5.57625 9.89211 5.57625 10.6006C5.57625 11.3091 5.71719 12.0105 5.99087 12.664C6.26455 13.3175 6.6655 13.91 7.17037 14.4071C7.67524 14.9042 8.27396 15.2958 8.93165 15.5593C9.58934 15.8227 10.2929 15.9527 11.0013 15.9417C12.4034 15.9198 13.7407 15.3474 14.7244 14.3482C15.7082 13.3489 16.2596 12.0029 16.2596 10.6006C16.2596 9.19833 15.7082 7.85229 14.7244 6.85303C13.7407 5.85376 12.4034 5.28143 11.0013 5.25955ZM11.0013 7.13285C11.9208 7.13285 12.8027 7.49813 13.4529 8.14834C14.1031 8.79855 14.4684 9.68042 14.4684 10.6C14.4684 11.5195 14.1031 12.4014 13.4529 13.0516C12.8027 13.7018 11.9208 14.067 11.0013 14.067C10.0817 14.067 9.19987 13.7018 8.54967 13.0516C7.89946 12.4014 7.53418 11.5195 7.53418 10.6C7.53418 9.68042 7.89946 8.79855 8.54967 8.14834C9.19987 7.49813 10.0817 7.13285 11.0013 7.13285Z" fill="#2170B4"/>
</g>
<defs>
<clipPath id="clip0_1476_2486">
<rect width="20.8" height="20.8" fill="white" transform="translate(0.600098 0.199951)"/>
</clipPath>
</defs>
</svg>
