<svg width="33" height="33" viewBox="0 0 33 33" fill="none" xmlns="http://www.w3.org/2000/svg">
<path d="M12.2347 19.4575C11.2324 19.4576 10.2526 19.1604 9.41925 18.6037C8.58586 18.0469 7.93631 17.2554 7.55274 16.3295C7.16918 15.4035 7.06883 14.3846 7.26439 13.4016C7.45995 12.4186 7.94263 11.5156 8.65139 10.8069L13.8804 5.57996C14.8308 4.62961 16.1197 4.0957 17.4637 4.0957C18.8077 4.0957 20.0967 4.62961 21.0471 5.57996C21.9974 6.53031 22.5313 7.81927 22.5313 9.16327C22.5313 10.5073 21.9974 11.7962 21.0471 12.7466L20.4807 13.3119L19.0316 11.8648L19.6021 11.2944C20.1662 10.7276 20.4826 9.96013 20.4818 9.16038C20.4811 8.36062 20.1632 7.5938 19.598 7.02803C19.0227 6.479 18.258 6.17267 17.4627 6.17267C16.6675 6.17267 15.9028 6.479 15.3275 7.02803L10.1005 12.255C9.81989 12.5353 9.59728 12.8682 9.4454 13.2345C9.29352 13.6009 9.21535 13.9936 9.21535 14.3903C9.21535 14.7869 9.29352 15.1796 9.4454 15.546C9.59728 15.9124 9.81989 16.2452 10.1005 16.5255C10.6758 17.0745 11.4405 17.3809 12.2357 17.3809C13.031 17.3809 13.7957 17.0745 14.371 16.5255L15.819 17.9736C15.3494 18.4456 14.7907 18.8198 14.1755 19.0745C13.5602 19.3292 12.9006 19.4594 12.2347 19.4575Z" fill="black"/>
<path d="M20.4271 17.4096C19.4248 17.4097 18.445 17.1126 17.6116 16.5558C16.7782 15.999 16.1287 15.2076 15.7451 14.2816C15.3616 13.3556 15.2612 12.3367 15.4568 11.3537C15.6523 10.3707 16.135 9.46776 16.8438 8.7591L17.4101 8.1938L18.8582 9.64289L18.2929 10.2082C17.7267 10.7744 17.4087 11.5422 17.4087 12.3429C17.4087 13.1436 17.7267 13.9115 18.2929 14.4776C18.8682 15.0267 19.6329 15.333 20.4281 15.333C21.2234 15.333 21.988 15.0267 22.5634 14.4776L27.7914 9.24964C28.3564 8.68311 28.6738 7.91559 28.6738 7.11542C28.6738 6.31525 28.3564 5.54774 27.7914 4.9812C27.2161 4.43217 26.4514 4.12584 25.6561 4.12584C24.8609 4.12584 24.0962 4.43217 23.5209 4.9812L22.0728 3.53211C23.0232 2.58175 24.3121 2.04785 25.6561 2.04785C27.0001 2.04785 28.2891 2.58175 29.2394 3.53211C30.1898 4.48246 30.7237 5.77142 30.7237 7.11542C30.7237 8.45942 30.1898 9.74838 29.2394 10.6987L24.0125 15.9247C23.5428 16.3968 22.9842 16.7711 22.3689 17.026C21.7537 17.2809 21.0941 17.4113 20.4281 17.4096H20.4271Z" fill="black"/>
<path d="M24.578 30.7228H4.09604C3.553 30.7223 3.03235 30.5063 2.64835 30.1223C2.26436 29.7384 2.04839 29.2177 2.04785 28.6747V8.19272C2.04839 7.64968 2.26436 7.12903 2.64835 6.74503C3.03235 6.36104 3.553 6.14507 4.09604 6.14453H8.19243V8.19272H4.09604V28.6747H24.578V18.4337H26.6262V28.6747C26.6256 29.2177 26.4097 29.7384 26.0257 30.1223C25.6417 30.5063 25.121 30.7223 24.578 30.7228Z" fill="black"/>
</svg>
