<svg width="26" height="27" viewBox="0 0 26 27" fill="none" xmlns="http://www.w3.org/2000/svg">
<path d="M22.75 9.26664V17.9333C22.75 19.3699 22.1793 20.7476 21.1635 21.7635C20.1477 22.7793 18.7699 23.35 17.3333 23.35H8.66667C7.23008 23.35 5.85233 22.7793 4.8365 21.7635C3.82068 20.7476 3.25 19.3699 3.25 17.9333V9.26664C3.25 7.83005 3.82068 6.4523 4.8365 5.43648C5.85233 4.42066 7.23008 3.84998 8.66667 3.84998H17.3333C18.7699 3.84998 20.1477 4.42066 21.1635 5.43648C22.1793 6.4523 22.75 7.83005 22.75 9.26664Z" stroke="#2170B4" stroke-width="1.95" stroke-linecap="round" stroke-linejoin="round"/>
<path d="M11.9167 23.3498V13.5998C11.9167 11.2295 12.4583 9.26648 16.25 9.26648M9.75 14.6831H16.25" stroke="#2170B4" stroke-width="1.95" stroke-linecap="round" stroke-linejoin="round"/>
</svg>
