<svg xmlns="http://www.w3.org/2000/svg" xmlns:xlink="http://www.w3.org/1999/xlink" version="1.1" x="0px" y="0px" viewBox="0 0 48 48" style="enable-background:new 0 0 48 48;" xml:space="preserve"><path d="M28.9,24.2c2.9-1.7,4.9-4.8,4.9-8.4c0-5.4-4.4-9.8-9.8-9.8c-5.4,0-9.8,4.4-9.8,9.8c0,3.6,2,6.7,4.9,8.4  C11.7,26.2,6.2,32.9,6,41c0,0.3,0.1,0.5,0.3,0.7C6.5,41.9,6.7,42,7,42h34c0.3,0,0.5-0.1,0.7-0.3c0.2-0.2,0.3-0.5,0.3-0.7  C41.8,32.9,36.3,26.2,28.9,24.2z M16.2,15.8c0-4.3,3.5-7.8,7.8-7.8c4.3,0,7.8,3.5,7.8,7.8c0,4.3-3.5,7.8-7.8,7.8  C19.7,23.5,16.2,20,16.2,15.8z M8.1,40c0.7-8.2,7.5-14.5,15.9-14.5c8.4,0,15.2,6.3,15.9,14.5H8.1z"/></svg>