<svg width="16" height="26" viewBox="0 0 16 26" fill="none" xmlns="http://www.w3.org/2000/svg">
<path d="M1.20231 0H14.9827C15.2909 0 15.5376 0.101178 15.7225 0.303533C15.9075 0.505889 16 0.758833 16 1.06237V24.5862C16 24.8897 15.8998 25.1511 15.6994 25.3703C15.499 25.5896 15.2601 25.6992 14.9827 25.6992C14.7669 25.6992 14.5356 25.6148 14.289 25.4462L8.69364 20.0838C8.57033 19.9489 8.33911 19.8814 8 19.8814C7.7842 19.8814 7.55299 19.9489 7.30636 20.0838L1.66474 25.4462C1.54143 25.6148 1.31021 25.6992 0.971099 25.6992C0.72447 25.6992 0.500964 25.5896 0.300578 25.3703C0.100193 25.1511 0 24.8897 0 24.5862V1.06237C0.2158 0.354122 0.61657 0 1.20231 0ZM2.17341 22.2085L6.10405 18.4649C6.56647 17.9591 7.22929 17.7061 8.09249 17.7061C8.73988 17.7061 9.4027 17.9591 10.0809 18.4649L14.0116 22.2085V2.17532H2.17341V22.2085Z" fill="#2170B4"/>
</svg>
