<svg width="16" height="22" viewBox="0 0 16 22" fill="none" xmlns="http://www.w3.org/2000/svg">
<path d="M3.05581 1.41805L4.2228 1.06705C4.86209 0.874278 5.54969 0.920685 6.15728 1.19761C6.76486 1.47454 7.25094 1.96308 7.5248 2.57205L8.42681 4.57805C8.66227 5.10186 8.72784 5.68623 8.61432 6.24919C8.50079 6.81215 8.21387 7.32544 7.7938 7.71705L6.29981 9.11005C6.25613 9.15075 6.22847 9.20573 6.22181 9.26505C6.1778 9.66206 6.44681 10.4351 7.06681 11.5101C7.51781 12.2911 7.92681 12.8401 8.27381 13.1471C8.51581 13.3621 8.64881 13.4081 8.70581 13.3921L10.7158 12.7771C11.2647 12.6092 11.8524 12.6172 12.3965 12.8001C12.9406 12.9831 13.4138 13.3317 13.7498 13.7971L15.0308 15.5731C15.4204 16.1131 15.6007 16.7762 15.5384 17.4392C15.476 18.1022 15.1752 18.7201 14.6918 19.1781L13.8058 20.0181C13.3356 20.4634 12.758 20.7793 12.1294 20.9351C11.5008 21.0909 10.8426 21.0812 10.2188 20.9071C7.46481 20.1381 4.9958 17.8141 2.7838 13.9831C0.568805 10.1471 -0.208195 6.84305 0.507805 4.07005C0.66898 3.44639 0.988091 2.87476 1.43438 2.41025C1.88067 1.94575 2.43908 1.60404 3.05581 1.41805ZM3.4888 2.85505C3.11888 2.96651 2.78388 3.17134 2.51609 3.44982C2.24829 3.7283 2.05671 4.07105 1.95981 4.44505C1.35781 6.77705 2.04681 9.70605 4.08281 13.2331C6.11581 16.7551 8.30481 18.8151 10.6228 19.4631C10.9969 19.5673 11.3917 19.5728 11.7686 19.4793C12.1455 19.3857 12.4918 19.1961 12.7738 18.9291L13.6608 18.0891C13.8806 17.8808 14.0174 17.5999 14.0457 17.2985C14.074 16.997 13.992 16.6956 13.8148 16.4501L12.5348 14.6751C12.3821 14.4633 12.1668 14.3046 11.9193 14.2214C11.6718 14.1382 11.4045 14.1346 11.1548 14.2111L9.13981 14.8281C7.96981 15.1761 6.9078 14.2351 5.7678 12.2601C4.9998 10.9301 4.6418 9.90005 4.7308 9.09905C4.7778 8.68305 4.97081 8.29905 5.27681 8.01305L6.7708 6.62005C6.96183 6.44207 7.09232 6.20874 7.14397 5.95281C7.19563 5.69688 7.16584 5.43119 7.0588 5.19305L6.1568 3.18705C6.03232 2.91046 5.81152 2.68857 5.53555 2.56272C5.25957 2.43688 4.94726 2.41567 4.6568 2.50305L3.4888 2.85505Z" fill="#2170B4"/>
</svg>
