<svg width="9" height="9" viewBox="0 0 9 9" fill="none" xmlns="http://www.w3.org/2000/svg">
<path d="M1.90702 8.71993C1.59621 8.46163 1.47188 8.1775 1.53404 7.86754C1.59621 7.55758 1.72053 7.26699 1.90702 6.99578C2.06864 6.77623 2.29242 6.53084 2.57837 6.25963C2.87675 5.9755 3.26216 5.66554 3.73459 5.32975C3.15026 5.32975 2.65918 5.31038 2.26134 5.27163C1.87594 5.21997 1.55891 5.1554 1.31026 5.07791C0.999448 4.97459 0.725934 4.81961 0.489718 4.61297C0.265933 4.39341 0.216204 4.08345 0.340528 3.68309C0.477285 3.28273 0.694853 3.06963 0.993232 3.0438C1.29161 3.01797 1.59621 3.05671 1.90702 3.16003C2.15567 3.25044 2.44783 3.39896 2.78351 3.6056C3.13162 3.79932 3.54189 4.07054 4.01432 4.41924C3.82783 3.85098 3.69108 3.36667 3.60405 2.96631C3.52945 2.56594 3.49216 2.23016 3.49216 1.95894C3.49216 1.62315 3.55432 1.31319 3.67864 1.02906C3.80297 0.732018 4.06405 0.583496 4.46189 0.583496C4.85973 0.583496 5.12081 0.732018 5.24513 1.02906C5.36946 1.31319 5.43162 1.62315 5.43162 1.95894C5.43162 2.23016 5.38811 2.56594 5.30108 2.96631C5.22648 3.36667 5.09594 3.85098 4.90946 4.41924C5.38189 4.07054 5.78594 3.79932 6.12162 3.6056C6.4573 3.39896 6.74324 3.25044 6.97946 3.16003C7.3027 3.05671 7.61352 3.02443 7.91189 3.06317C8.22271 3.089 8.44027 3.29564 8.5646 3.68309C8.68892 4.08345 8.63298 4.39341 8.39676 4.61297C8.17298 4.81961 7.91189 4.97459 7.61352 5.07791C7.35243 5.1554 7.02919 5.21997 6.64378 5.27163C6.25838 5.31038 5.77351 5.32975 5.18919 5.32975C5.66162 5.67845 6.04081 5.98841 6.32676 6.25963C6.62514 6.53084 6.84892 6.77623 6.99811 6.99578C7.1846 7.27991 7.30892 7.57695 7.37108 7.88691C7.44568 8.18396 7.32135 8.46163 6.99811 8.71993C6.67487 8.96531 6.37649 9.00406 6.10297 8.83616C5.84189 8.66827 5.61811 8.45517 5.43162 8.19687C5.27 7.9644 5.10838 7.6609 4.94675 7.28637C4.79756 6.91183 4.63594 6.44044 4.46189 5.87218C4.11378 6.98287 3.78432 7.75131 3.47351 8.1775C3.28702 8.44871 3.05702 8.66827 2.78351 8.83616C2.52242 9.00406 2.23026 8.96531 1.90702 8.71993Z" fill="#2170B4"/>
</svg>
