<svg width="20" height="23" viewBox="0 0 20 23" fill="none" xmlns="http://www.w3.org/2000/svg">
<path d="M11.95 4.2002C11.95 3.68302 11.7446 3.18703 11.3789 2.82134C11.0132 2.45564 10.5172 2.2502 10 2.2502C9.48283 2.2502 8.98684 2.45564 8.62114 2.82134C8.25545 3.18703 8.05 3.68302 8.05 4.2002H6.75C6.75 3.33824 7.09241 2.51159 7.7019 1.9021C8.3114 1.29261 9.13805 0.950195 10 0.950195C10.862 0.950195 11.6886 1.29261 12.2981 1.9021C12.9076 2.51159 13.25 3.33824 13.25 4.2002H19.1C19.2724 4.2002 19.4377 4.26868 19.5596 4.39058C19.6815 4.51247 19.75 4.6778 19.75 4.8502C19.75 5.02259 19.6815 5.18792 19.5596 5.30981C19.4377 5.43171 19.2724 5.5002 19.1 5.5002H18.3798L16.695 20.0992C16.6216 20.7328 16.3179 21.3174 15.8417 21.7416C15.3654 22.1659 14.7497 22.4003 14.1119 22.4002H5.8881C5.25025 22.4003 4.63463 22.1659 4.15834 21.7416C3.68206 21.3174 3.37835 20.7328 3.305 20.0992L1.6189 5.5002H0.9C0.747867 5.50025 0.600535 5.44693 0.483663 5.34954C0.366792 5.25215 0.287784 5.11684 0.2604 4.9672L0.25 4.8502C0.25 4.6778 0.318482 4.51247 0.440381 4.39058C0.562279 4.26868 0.727609 4.2002 0.9 4.2002H11.95ZM17.0694 5.5002H2.9293L4.5959 19.9497C4.63259 20.2666 4.78454 20.559 5.02281 20.7711C5.26109 20.9833 5.56906 21.1004 5.8881 21.1002H14.1119C14.4307 21.1001 14.7384 20.9828 14.9764 20.7707C15.2144 20.5586 15.3661 20.2664 15.4028 19.9497L17.0694 5.5002ZM8.05 8.7502C8.3685 8.7502 8.635 8.9517 8.6896 9.2169L8.7 9.3196V17.2821C8.7 17.5954 8.4088 17.8502 8.05 17.8502C7.7315 17.8502 7.465 17.6487 7.4104 17.3835L7.4 17.2808V9.3209C7.4 9.0063 7.6912 8.75149 8.05 8.75149V8.7502ZM11.95 8.7502C12.2685 8.7502 12.535 8.9517 12.5896 9.2169L12.6 9.3196V17.2821C12.6 17.5954 12.3088 17.8502 11.95 17.8502C11.6315 17.8502 11.365 17.6487 11.3104 17.3835L11.3 17.2808V9.3209C11.3 9.0063 11.5912 8.75149 11.95 8.75149V8.7502Z" fill="#E33E5A"/>
</svg>
