<svg width="14" height="9" viewBox="0 0 14 9" fill="none" xmlns="http://www.w3.org/2000/svg">
<path d="M7.00025 8.99996C6.82477 9.00098 6.65082 8.96734 6.48837 8.90099C6.32592 8.83464 6.17817 8.73687 6.05358 8.61329L0.720247 3.27996C0.469176 3.02889 0.328125 2.68836 0.328125 2.3333C0.328125 1.97823 0.469176 1.6377 0.720247 1.38663C0.971319 1.13556 1.31185 0.994507 1.66691 0.994507C2.02198 0.994507 2.36251 1.13556 2.61358 1.38663L7.00025 5.78663L11.3869 1.39996C11.642 1.18153 11.9701 1.06738 12.3057 1.08035C12.6412 1.09331 12.9595 1.23242 13.197 1.46988C13.4345 1.70734 13.5736 2.02566 13.5865 2.36122C13.5995 2.69679 13.4853 3.02489 13.2669 3.27996L7.93358 8.61329C7.68523 8.85962 7.35003 8.99849 7.00025 8.99996Z" fill="#2B2B2B"/>
</svg>
